<svg width="400" height="400" viewBox="0 0 400 400" fill="none" xmlns="http://www.w3.org/2000/svg">
<path opacity="0.13" d="M202 240C222.987 240 240 222.987 240 202C240 181.013 222.987 164 202 164C181.013 164 164 181.013 164 202C164 222.987 181.013 240 202 240Z" fill="#050D1E"/>
<path d="M216.417 245.105C278.694 222.438 321.83 183.869 312.763 158.958C303.696 134.047 245.86 132.228 183.583 154.895C121.306 177.562 78.1701 216.132 87.2369 241.043C96.3038 265.953 154.14 267.772 216.417 245.105Z" stroke="#050D1E" stroke-width="2"/>
<path d="M169.146 236.77C219.915 279.37 274.885 297.442 291.925 277.135C308.965 256.827 281.623 205.83 230.854 163.23C180.085 120.63 125.115 102.558 108.075 122.866C91.0346 143.173 118.377 194.17 169.146 236.77Z" stroke="#050D1E" stroke-width="2"/>
<path d="M152.729 191.665C141.221 256.932 153.055 313.574 179.162 318.177C205.269 322.78 235.762 273.602 247.271 208.335C258.779 143.068 246.945 86.4264 220.838 81.8231C194.731 77.2197 164.238 126.398 152.729 191.665Z" stroke="#050D1E" stroke-width="2"/>
<path d="M194 210C201.732 210 208 203.732 208 196C208 188.268 201.732 182 194 182C186.268 182 180 188.268 180 196C180 203.732 186.268 210 194 210Z" fill="#F7F2EC" stroke="#050D1E" stroke-width="2"/>
<path d="M207 219C214.732 219 221 212.732 221 205C221 197.268 214.732 191 207 191C199.268 191 193 197.268 193 205C193 212.732 199.268 219 207 219Z" fill="#F7F2EC" stroke="#050D1E" stroke-width="2"/>
<path d="M207 208C214.732 208 221 201.732 221 194C221 186.268 214.732 180 207 180C199.268 180 193 186.268 193 194C193 201.732 199.268 208 207 208Z" fill="#3363BE" stroke="#050D1E" stroke-width="2"/>
<path d="M194 221C201.732 221 208 214.732 208 207C208 199.268 201.732 193 194 193C186.268 193 180 199.268 180 207C180 214.732 186.268 221 194 221Z" fill="#3363BE" stroke="#050D1E" stroke-width="2"/>
<path opacity="0.25" d="M200 210C205.523 210 210 205.523 210 200C210 194.477 205.523 190 200 190C194.477 190 190 194.477 190 200C190 205.523 194.477 210 200 210Z" fill="white"/>
<path d="M298 170C302.418 170 306 166.418 306 162C306 157.582 302.418 154 298 154C293.582 154 290 157.582 290 162C290 166.418 293.582 170 298 170Z" fill="#3363BE" stroke="#050D1E" stroke-width="2"/>
<path d="M298 166C300.209 166 302 164.209 302 162C302 159.791 300.209 158 298 158C295.791 158 294 159.791 294 162C294 164.209 295.791 166 298 166Z" fill="#050D1E"/>
<path d="M110 256C114.418 256 118 252.418 118 248C118 243.582 114.418 240 110 240C105.582 240 102 243.582 102 248C102 252.418 105.582 256 110 256Z" fill="#3363BE" stroke="#050D1E" stroke-width="2"/>
<path d="M110 252C112.209 252 114 250.209 114 248C114 245.791 112.209 244 110 244C107.791 244 106 245.791 106 248C106 250.209 107.791 252 110 252Z" fill="#050D1E"/>
<path d="M167 90C171.418 90 175 86.4183 175 82C175 77.5817 171.418 74 167 74C162.582 74 159 77.5817 159 82C159 86.4183 162.582 90 167 90Z" fill="#3363BE" stroke="#050D1E" stroke-width="2"/>
<path d="M167 86C169.209 86 171 84.2091 171 82C171 79.7909 169.209 78 167 78C164.791 78 163 79.7909 163 82C163 84.2091 164.791 86 167 86Z" fill="#050D1E"/>
<path opacity="0.6" d="M298 176C305.732 176 312 169.732 312 162C312 154.268 305.732 148 298 148C290.268 148 284 154.268 284 162C284 169.732 290.268 176 298 176Z" stroke="#718EA5"/>
<path opacity="0.35" d="M298 182C309.046 182 318 173.046 318 162C318 150.954 309.046 142 298 142C286.954 142 278 150.954 278 162C278 173.046 286.954 182 298 182Z" stroke="#718EA5" stroke-width="0.8"/>
<path opacity="0.6" d="M110 262C117.732 262 124 255.732 124 248C124 240.268 117.732 234 110 234C102.268 234 96 240.268 96 248C96 255.732 102.268 262 110 262Z" stroke="#718EA5"/>
<path opacity="0.35" d="M110 268C121.046 268 130 259.046 130 248C130 236.954 121.046 228 110 228C98.9543 228 90 236.954 90 248C90 259.046 98.9543 268 110 268Z" stroke="#718EA5" stroke-width="0.8"/>
<path opacity="0.6" d="M167 96C174.732 96 181 89.732 181 82C181 74.268 174.732 68 167 68C159.268 68 153 74.268 153 82C153 89.732 159.268 96 167 96Z" stroke="#718EA5"/>
<path opacity="0.35" d="M167 102C178.046 102 187 93.0457 187 82C187 70.9543 178.046 62 167 62C155.954 62 147 70.9543 147 82C147 93.0457 155.954 102 167 102Z" stroke="#718EA5" stroke-width="0.8"/>
<path opacity="0.13" d="M202 220C217.464 220 230 215.523 230 210C230 204.477 217.464 200 202 200C186.536 200 174 204.477 174 210C174 215.523 186.536 220 202 220Z" fill="#050D1E"/>
</svg>
