<svg width="400" height="400" viewBox="0 0 400 400" fill="none" xmlns="http://www.w3.org/2000/svg">
<path opacity="0.45" d="M359.858 314.92C335.723 250.773 332.459 213.986 332.459 213.986H285.704C285.704 213.986 281.53 254.109 252.757 331.175L359.858 331.201V331.401H383.309V291.503H359.858V314.92H359.858Z" fill="#718EA5"/>
<path opacity="0.45" d="M169.353 213.011H167.503V217.494H169.353V300.89H181.129V217.494H182.98V213.011H181.129H169.353Z" fill="#718EA5"/>
<path d="M104.485 169.184C104.485 165.286 101.324 162.125 97.4258 162.125C94.524 162.125 92.0334 163.878 90.9485 166.38C90.7507 166.364 90.552 166.35 90.3498 166.35C90.3449 166.35 90.3405 166.351 90.3356 166.351C89.8894 159.436 84.1422 153.964 77.1142 153.964C76.5134 153.964 75.9231 154.008 75.3436 154.085C73.7693 148.524 68.6596 144.448 62.5942 144.448C55.2751 144.448 49.3418 150.381 49.3418 157.7C49.3418 165.019 55.2751 170.953 62.5942 170.953C63.1951 170.953 63.7854 170.909 64.3649 170.831C65.9391 176.393 71.0489 180.469 77.1142 180.469C80.0347 180.469 82.7325 179.522 84.9227 177.922C85.8027 178.979 86.9867 179.773 88.3396 180.174C87.9494 180.821 87.7209 181.576 87.7209 182.386C87.7209 184.756 89.6422 186.677 92.012 186.677C94.0742 186.677 95.7951 185.222 96.2076 183.283C96.2396 183.284 96.2707 183.288 96.3031 183.288C98.6734 183.288 100.594 181.366 100.594 178.997C100.594 177.815 100.114 176.749 99.3418 175.974C102.308 175.138 104.485 172.418 104.485 169.184Z" fill="#F7F2EC" stroke="#050D1E" stroke-width="2.5" stroke-miterlimit="10"/>
<path opacity="0.13" d="M104.485 169.184C104.485 165.286 101.324 162.125 97.4258 162.125C94.524 162.125 92.0334 163.878 90.9485 166.38C90.7507 166.364 90.552 166.35 90.3498 166.35C90.3449 166.35 90.3405 166.351 90.3356 166.351C89.8894 159.436 84.1422 153.964 77.1142 153.964C76.5134 153.964 75.9231 154.008 75.3436 154.085C73.7693 148.524 68.6596 144.448 62.5942 144.448C55.2751 144.448 49.3418 150.381 49.3418 157.7C49.3418 165.019 55.2751 170.953 62.5942 170.953C63.1951 170.953 63.7854 170.909 64.3649 170.831C65.9391 176.393 71.0489 180.469 77.1142 180.469C80.0347 180.469 82.7325 179.522 84.9227 177.922C85.8027 178.979 86.9867 179.773 88.3396 180.174C87.9494 180.821 87.7209 181.576 87.7209 182.386C87.7209 184.756 89.6422 186.677 92.012 186.677C94.0742 186.677 95.7951 185.222 96.2076 183.283C96.2396 183.284 96.2707 183.288 96.3031 183.288C98.6734 183.288 100.594 181.366 100.594 178.997C100.594 177.815 100.114 176.749 99.3418 175.974C102.308 175.138 104.485 172.418 104.485 169.184Z" fill="#050D1E"/>
<path d="M270.278 151.378C270.278 147.419 267.362 144.15 263.563 143.579C263.397 137.401 259.019 132.276 253.194 130.972C253.365 129.987 253.459 128.975 253.459 127.941C253.459 118.186 245.551 110.278 235.796 110.278C235.326 110.278 234.863 110.302 234.404 110.337C230.313 100.196 220.384 93.0356 208.778 93.0356C200.077 93.0356 192.32 97.0623 187.255 103.349C185.864 103.133 184.438 103.02 182.986 103.02C174.646 103.02 167.175 106.721 162.109 112.563C161.253 112.438 160.379 112.371 159.488 112.371C149.564 112.371 141.518 120.416 141.518 130.341C141.518 137.766 146.022 144.138 152.447 146.877C151.351 149.177 150.736 151.75 150.736 154.467C150.736 164.222 158.644 172.13 168.399 172.13C171.011 172.13 173.488 171.558 175.718 170.541C178.834 175.559 184.392 178.901 190.732 178.901C197.827 178.901 203.941 174.716 206.75 168.681C208.459 169.587 210.407 170.101 212.475 170.101C214.487 170.101 216.383 169.613 218.058 168.754C219.049 170.77 220.871 172.298 223.08 172.895C222.411 174.303 222.035 175.878 222.035 177.541C222.035 183.522 226.883 188.37 232.864 188.37C236.472 188.37 239.667 186.603 241.635 183.889C243.227 184.809 245.075 185.339 247.047 185.339C248.068 185.339 249.056 185.195 249.993 184.93C250.176 184.981 250.361 185.029 250.549 185.072C256.382 186.393 262.182 182.734 263.502 176.901C264.063 174.426 263.724 171.958 262.705 169.834C265.461 168.601 267.384 165.841 267.384 162.628C267.384 161.045 266.913 159.573 266.111 158.337C268.591 157.006 270.278 154.39 270.278 151.378Z" fill="#F7F2EC"/>
<path d="M266.113 157.857C266.915 159.091 267.386 160.565 267.386 162.146C267.386 165.363 265.464 168.12 262.707 169.354C263.725 171.477 264.067 173.947 263.503 176.422C262.777 179.618 260.708 182.163 258.028 183.593C258.472 182.759 258.813 181.86 259.03 180.896C259.588 178.421 259.252 175.957 258.234 173.828C260.985 172.599 262.908 169.837 262.908 166.625C262.908 165.038 262.442 163.57 261.635 162.336C264.115 161.003 265.805 158.387 265.805 155.371C265.805 151.412 262.886 148.146 259.089 147.572C258.921 141.397 254.545 136.269 248.717 134.969C248.891 133.983 248.983 132.97 248.983 131.936C248.983 122.181 241.076 114.274 231.321 114.274C230.85 114.274 230.39 114.296 229.929 114.334C225.84 104.19 215.908 97.0299 204.301 97.0299C195.603 97.0299 187.842 101.059 182.778 107.342C181.386 107.131 179.962 107.017 178.511 107.017C170.17 107.017 162.701 110.716 157.632 116.56C156.776 116.435 155.904 116.365 155.016 116.365C151.198 116.365 147.656 117.556 144.742 119.587C147.992 114.935 153.386 111.891 159.49 111.891C160.383 111.891 161.256 111.956 162.111 112.081C167.175 106.237 174.649 102.538 182.99 102.538C184.441 102.538 185.865 102.652 187.257 102.868C192.321 96.5801 200.077 92.5508 208.78 92.5508C220.387 92.5508 230.314 99.7161 234.409 109.855C234.864 109.817 235.329 109.795 235.8 109.795C245.555 109.795 253.462 117.702 253.462 127.457C253.462 128.491 253.37 129.504 253.196 130.489C259.024 131.795 263.4 136.918 263.568 143.098C267.364 143.667 270.279 146.938 270.279 150.897C270.278 153.908 268.594 156.524 266.113 157.857Z" fill="white"/>
<path opacity="0.13" d="M263.749 175.237C263.719 175.817 263.635 176.401 263.499 176.99C262.181 182.822 256.38 186.481 250.547 185.159C250.363 185.119 250.174 185.071 249.994 185.018C249.054 185.282 248.066 185.427 247.047 185.427C245.075 185.427 243.225 184.9 241.636 183.978C239.668 186.692 236.471 188.458 232.864 188.458C226.882 188.458 222.034 183.609 222.034 177.631C222.034 175.967 222.412 174.39 223.079 172.985C220.87 172.387 219.047 170.859 218.059 168.843C216.381 169.704 214.488 170.191 212.477 170.191C210.408 170.191 208.458 169.678 206.75 168.768C203.939 174.803 197.825 178.989 190.732 178.989C184.39 178.989 178.834 175.646 175.72 170.63C173.489 171.645 171.012 172.22 168.398 172.22C158.644 172.22 150.738 164.31 150.738 154.555C150.738 151.837 151.353 149.267 152.446 146.966C146.021 144.225 141.519 137.852 141.519 130.43C141.519 125.836 143.24 121.65 146.073 118.47C145.761 119.793 145.599 121.167 145.599 122.582C145.599 130.009 150.101 136.382 156.527 139.118C155.433 141.419 154.818 143.993 154.818 146.707C154.818 156.462 162.724 164.372 172.479 164.372C175.092 164.372 177.569 163.801 179.8 162.782C182.914 167.802 188.47 171.145 194.812 171.145C201.905 171.145 208.019 166.959 210.83 160.924C212.538 161.829 214.488 162.343 216.557 162.343C218.568 162.343 220.461 161.855 222.139 160.994C223.128 163.01 224.95 164.539 227.159 165.136C226.492 166.546 226.114 168.118 226.114 169.783C226.114 175.765 230.963 180.614 236.945 180.614C240.551 180.614 243.748 178.843 245.716 176.129C247.306 177.051 249.155 177.583 251.127 177.583C252.146 177.583 253.134 177.438 254.074 177.17C254.254 177.223 254.443 177.271 254.628 177.315C257.952 178.066 261.268 177.2 263.749 175.237Z" fill="#050D1E"/>
<path d="M154.204 331.08L95.2577 331.067L52.0577 331.053C77.96 261.667 81.72 225.538 81.72 225.538H123.818C123.818 225.538 127.253 264.298 154.204 331.08Z" fill="#F7F2EC" stroke="#050D1E" stroke-width="2.5" stroke-miterlimit="10"/>
<path opacity="0.13" d="M95.2577 225.538V331.067L52.0577 331.053C77.96 261.667 81.72 225.538 81.72 225.538H95.2577Z" fill="#050D1E"/>
<path d="M100.647 184.365H87.1592V285.019H100.647V184.365Z" fill="#F7F2EC" stroke="#050D1E" stroke-width="2.5" stroke-miterlimit="10"/>
<path d="M100.647 228.882H87.1592V285.019H100.647V228.882Z" fill="#3363BE" stroke="#050D1E" stroke-width="2.5" stroke-miterlimit="10" stroke-linecap="round"/>
<path d="M59.9307 267.835C59.9307 267.835 167.084 289.66 268.692 267.835" stroke="#050D1E" stroke-width="2.5" stroke-miterlimit="10" stroke-linecap="round" stroke-linejoin="round"/>
<path d="M59.4174 272.313C59.4174 272.313 166.571 294.138 268.18 272.313" stroke="#050D1E" stroke-width="2.5" stroke-miterlimit="10" stroke-linecap="round" stroke-linejoin="round"/>
<path opacity="0.13" d="M147.837 285.242L121.564 285.019L125.128 235.754L130.494 261.529L147.837 285.242Z" fill="#050D1E"/>
<path d="M319.498 331.174L199.347 331.147L171.342 331.138C208.916 230.494 214.369 178.094 214.369 178.094H275.427C275.427 178.094 280.409 234.311 319.498 331.174Z" fill="#F7F2EC" stroke="#050D1E" stroke-width="2.5" stroke-miterlimit="10"/>
<path d="M276.297 177.686H213.802V184.686H276.297V177.686Z" fill="#F7F2EC"/>
<path d="M310.248 330.214C271.158 233.354 266.85 178.094 266.85 178.094H253.239C253.239 178.094 257.547 233.352 296.634 330.207L310.248 330.214Z" fill="white"/>
<path d="M265.734 331.228L277.804 256.417C277.907 255.779 278.824 255.779 278.927 256.417L290.997 331.228" stroke="#050D1E" stroke-width="2.5" stroke-miterlimit="10" stroke-linecap="round" stroke-linejoin="round"/>
<path d="M276.107 266.934L281.955 275.186L273.087 285.387L285.495 297.125L268.693 312.889" stroke="#050D1E" stroke-width="2.5" stroke-miterlimit="10" stroke-linecap="round" stroke-linejoin="round"/>
<path d="M280.624 266.934L275.002 275.186L283.611 285.446L271.234 297.139L288.034 312.889" stroke="#050D1E" stroke-width="2.5" stroke-miterlimit="10" stroke-linecap="round" stroke-linejoin="round"/>
<path d="M265.627 267.835H291.104" stroke="#050D1E" stroke-width="2.5" stroke-miterlimit="10" stroke-linecap="round" stroke-linejoin="round"/>
<path d="M265.627 272.26H291.104" stroke="#050D1E" stroke-width="2.5" stroke-miterlimit="10" stroke-linecap="round" stroke-linejoin="round"/>
<path d="M270.297 267.835C270.297 268.721 269.579 269.44 268.692 269.44C267.806 269.44 267.088 268.721 267.088 267.835C267.088 266.949 267.806 266.231 268.692 266.231C269.579 266.231 270.297 266.949 270.297 267.835Z" fill="#050D1E" stroke="#050D1E" stroke-width="2.5" stroke-miterlimit="10" stroke-linecap="round" stroke-linejoin="round"/>
<path d="M290.28 267.835C290.28 268.721 289.561 269.44 288.675 269.44C287.789 269.44 287.071 268.721 287.071 267.835C287.071 266.949 287.789 266.231 288.675 266.231C289.561 266.231 290.28 266.949 290.28 267.835Z" fill="#050D1E" stroke="#050D1E" stroke-width="2.5" stroke-miterlimit="10" stroke-linecap="round" stroke-linejoin="round"/>
<path d="M288.675 273.864C289.561 273.864 290.28 273.146 290.28 272.26C290.28 271.374 289.561 270.655 288.675 270.655C287.789 270.655 287.071 271.374 287.071 272.26C287.071 273.146 287.789 273.864 288.675 273.864Z" fill="#050D1E" stroke="#050D1E" stroke-width="2.5" stroke-miterlimit="10" stroke-linecap="round" stroke-linejoin="round"/>
<path d="M270.297 272.26C270.297 273.146 269.579 273.864 268.692 273.864C267.806 273.864 267.088 273.146 267.088 272.26C267.088 271.373 267.806 270.655 268.692 270.655C269.579 270.655 270.297 271.373 270.297 272.26Z" fill="#050D1E" stroke="#050D1E" stroke-width="2.5" stroke-miterlimit="10" stroke-linecap="round" stroke-linejoin="round"/>
<path opacity="0.13" d="M232.573 178.094C232.573 178.094 230.316 230.494 214.769 331.138L199.347 331.147L171.342 331.138C208.916 230.494 214.369 178.094 214.369 178.094H232.573Z" fill="#050D1E"/>
<path opacity="0.13" d="M225.843 120.29C225.606 120.41 225.374 120.53 225.149 120.663L228.658 118.929L225.843 120.29Z" fill="#050D1E"/>
<path opacity="0.13" d="M225.149 120.663L228.658 118.929L225.843 120.289C225.606 120.41 225.373 120.53 225.149 120.663Z" fill="#050D1E"/>
<path d="M69.7542 145.421C69.6844 144.762 69.6471 144.094 69.6471 143.417C69.6471 132.992 78.0982 124.541 88.5231 124.541C94.6782 124.541 100.144 127.488 103.589 132.047C105.983 130.034 109.071 128.82 112.444 128.82C119.22 128.82 124.85 133.717 125.996 140.165C129.73 140.399 132.689 143.493 132.689 147.287C132.689 148.057 132.564 148.798 132.337 149.494C137.656 149.736 141.897 154.112 141.897 159.49C141.897 161.737 141.148 163.804 139.899 165.475C141.88 166.539 143.227 168.629 143.227 171.034C143.227 172.873 142.435 174.523 141.18 175.676C142.656 176.443 143.665 177.983 143.665 179.761C143.665 182.303 141.604 184.365 139.061 184.365C136.518 184.365 134.457 182.303 134.457 179.761C134.457 178.779 134.767 177.87 135.291 177.123C134.181 176.827 133.191 176.241 132.411 175.444C131.86 175.631 131.271 175.737 130.656 175.737C129.033 175.737 127.581 175.026 126.58 173.903C125.398 174.458 124.082 174.777 122.689 174.777C120.516 174.777 118.522 174.018 116.948 172.757C115.536 173.245 114.022 173.514 112.444 173.514C108.826 173.514 105.536 172.117 103.079 169.835C101.785 170.593 100.283 171.034 98.6751 171.034C94.7929 171.034 91.5062 168.501 90.3657 165C87.8844 169.653 82.9849 172.82 77.344 172.82C69.1978 172.82 62.5938 166.216 62.5938 158.07C62.5942 152.7 65.4649 148.001 69.7542 145.421Z" fill="#F7F2EC"/>
<path d="M141.9 159.489C141.9 160.377 141.781 161.233 141.564 162.051C140.464 157.913 136.776 154.836 132.34 154.631C132.563 153.932 132.692 153.196 132.692 152.421C132.692 148.63 129.73 145.537 125.998 145.299C124.85 138.854 119.223 133.958 112.442 133.958C109.073 133.958 105.987 135.172 103.593 137.18C100.143 132.626 94.6782 129.68 88.5258 129.68C78.1 129.68 70.2027 137.387 69.7542 145.424C69.7165 146.1 65.5458 148.466 65.616 149.127C62.0253 151.282 63.5693 156.358 62.8218 160.637C62.6702 159.803 62.5942 158.947 62.5942 158.07C62.5942 152.703 65.4645 148.002 69.7538 145.424C69.6836 144.763 69.6453 144.096 69.6453 143.42C69.6453 132.994 78.0996 124.54 88.5254 124.54C94.6778 124.54 100.143 127.491 103.592 132.046C105.986 130.036 109.073 128.818 112.442 128.818C119.223 128.818 124.85 133.719 125.998 140.164C129.729 140.397 132.692 143.495 132.692 147.286C132.692 148.06 132.562 148.797 132.34 149.496C137.659 149.735 141.9 154.111 141.9 159.489Z" fill="white"/>
<path opacity="0.13" d="M63.1449 159.275C63.7405 166.866 70.0938 172.836 77.8444 172.836C83.4849 172.836 88.3827 169.672 90.864 165.021C92.0013 168.522 95.2902 171.05 99.1742 171.05C100.777 171.05 102.28 170.614 103.577 169.854C106.035 172.135 109.324 173.532 112.942 173.532C114.522 173.532 116.031 173.266 117.445 172.777C119.019 174.039 121.011 174.793 123.186 174.793C124.577 174.793 125.897 174.475 127.076 173.92C128.078 175.046 129.528 175.753 131.155 175.753C131.768 175.753 132.357 175.647 132.912 175.464C133.195 175.753 133.507 176.019 133.843 176.242C133.512 175.612 133.33 174.898 133.33 174.138C133.33 173.154 133.642 172.246 134.161 171.498C133.053 171.203 132.063 170.614 131.285 169.818C130.731 170.007 130.141 170.113 129.528 170.113C127.908 170.113 126.452 169.4 125.456 168.28C124.271 168.834 122.956 169.152 121.56 169.152C119.391 169.152 117.392 168.392 115.819 167.131C114.41 167.62 112.895 167.891 111.316 167.891C107.696 167.891 104.408 166.494 101.95 164.213C100.66 164.968 99.1564 165.41 97.5476 165.41C93.6636 165.41 90.3805 162.876 89.2369 159.374C86.7556 164.03 81.8578 167.196 76.2173 167.196C70.5356 167.196 65.6027 163.984 63.1449 159.275Z" fill="#050D1E"/>
<path d="M269.325 289.936H262.284V285.157C262.284 279.375 257.58 274.671 251.799 274.671H250.444V267.631H251.799C261.463 267.631 269.325 275.493 269.325 285.157V289.936Z" fill="#29A65E" stroke="#050D1E" stroke-width="2.5" stroke-miterlimit="10"/>
<path d="M180.532 288.189C179.573 284.592 179.062 280.812 179.062 276.914C179.062 274.601 179.242 272.33 179.588 270.114" stroke="white" stroke-width="7.3115" stroke-miterlimit="10" stroke-linecap="round"/>
<path d="M215.484 258.027H214.518V242.958L182.758 257.932V242.958L150.798 258.027V331.228L247.443 331.156V258.027V271.028L215.484 258.027Z" fill="#F7F2EC" stroke="#050D1E" stroke-width="2.5" stroke-miterlimit="10" stroke-linecap="round" stroke-linejoin="round"/>
<path d="M222.644 258.027H221.678V242.958L189.918 257.932V242.958L157.958 258.027V331.228L253.715 331.156V258.027V242.958L222.644 258.027Z" fill="#F7F2EC" stroke="#050D1E" stroke-width="2.5" stroke-miterlimit="10" stroke-linejoin="round"/>
<path d="M154.204 331.136H124.676L127.345 267.667L127.742 258.281L128.164 248.206L128.561 238.821L128.984 228.749L129.377 219.363L129.803 209.292L130.196 199.903L131.076 178.996H146.757L147.781 199.903L148.239 209.292L148.732 219.363L149.193 228.749L149.686 238.821L150.147 248.206L150.639 258.281L151.097 267.667L154.204 331.136Z" fill="#F7F2EC" stroke="#050D1E" stroke-width="2.5" stroke-miterlimit="10"/>
<path d="M123.183 331.137V285.242H154.204L157.958 331.137H123.183Z" fill="#3363BE" stroke="#050D1E" stroke-width="2.5" stroke-miterlimit="10" stroke-linecap="round"/>
<path d="M214.014 285.242H146.757V331.137H214.014V285.242Z" fill="#F7F2EC" stroke="#050D1E" stroke-width="2.5" stroke-miterlimit="10"/>
<path d="M214.014 285.242H146.757V299.963H214.014V285.242Z" fill="#3363BE" stroke="#050D1E" stroke-width="2.5" stroke-miterlimit="10" stroke-linecap="round"/>
<path d="M146.757 285.242H124.676V299.963H146.757V285.242Z" fill="#3363BE" stroke="#050D1E" stroke-width="2.5" stroke-miterlimit="10" stroke-linecap="round"/>
<path d="M214.014 324.711V331.137H146.757V324.711" fill="#3363BE"/>
<path d="M214.014 324.711V331.137H146.757V324.711" stroke="#050D1E" stroke-width="2.5" stroke-miterlimit="10" stroke-linecap="round"/>
<path d="M165.959 309.67H157.958V331.137H165.959V309.67Z" fill="#F7F2EC" stroke="#050D1E" stroke-width="2.5" stroke-miterlimit="10"/>
<path d="M163.799 311.43H160.198V326.844H163.799V311.43Z" fill="#C0DFE2" stroke="#050D1E" stroke-width="2.5" stroke-miterlimit="10" stroke-linecap="round"/>
<path d="M185.907 309.67H171.719V320.938H185.907V309.67Z" fill="#C0DFE2"/>
<path d="M186.827 320.104H170.799V321.772H186.827V320.104Z" fill="#F7F2EC" stroke="#050D1E" stroke-width="2.5" stroke-miterlimit="10"/>
<path opacity="0.47" d="M173.559 320.105L177.959 309.67H179.797L175.559 320.105H173.559Z" fill="#F7F2EC"/>
<path opacity="0.47" d="M176.479 320.105L180.88 309.67H181.971L177.732 320.105H176.479Z" fill="#F7F2EC"/>
<path d="M185.907 309.67H171.719V320.105H185.907V309.67Z" stroke="#050D1E" stroke-width="2.5" stroke-miterlimit="10" stroke-linecap="round"/>
<path d="M171.719 313.724H185.907" stroke="#050D1E" stroke-width="2.5" stroke-miterlimit="10"/>
<path d="M208.548 309.67H194.36V320.938H208.548V309.67Z" fill="#C0DFE2"/>
<path d="M221.506 242.958L189.918 258.28V254.556L221.506 239.324V242.958Z" fill="#3363BE" stroke="#050D1E" stroke-width="2.5" stroke-miterlimit="10" stroke-linecap="round" stroke-linejoin="round"/>
<path d="M209.468 320.104H193.44V321.772H209.468V320.104Z" fill="#F7F2EC" stroke="#050D1E" stroke-width="2.5" stroke-miterlimit="10"/>
<path opacity="0.47" d="M196.2 320.105L200.601 309.67H202.438L198.2 320.105H196.2Z" fill="#F7F2EC"/>
<path opacity="0.47" d="M199.12 320.105L203.521 309.67H204.612L200.374 320.105H199.12Z" fill="#F7F2EC"/>
<path d="M208.548 309.67H194.36V320.105H208.548V309.67Z" stroke="#050D1E" stroke-width="2.5" stroke-miterlimit="10" stroke-linecap="round"/>
<path d="M194.36 313.724H208.548" stroke="#050D1E" stroke-width="2.5" stroke-miterlimit="10"/>
<path opacity="0.13" d="M146.758 285.242H142.171V331.137H146.758V285.242Z" fill="#050D1E"/>
<path d="M150.641 178.996H128.24V186.677H150.641V178.996Z" fill="#3363BE" stroke="#050D1E" stroke-width="2.5" stroke-miterlimit="10" stroke-linecap="round"/>
<path d="M148.239 209.292H129.803L130.196 199.903H147.781L148.239 209.292Z" fill="#3363BE" stroke="#050D1E" stroke-width="2.5" stroke-miterlimit="10" stroke-linecap="round"/>
<path d="M149.193 228.749H128.984L129.377 219.363H148.732L149.193 228.749Z" fill="#3363BE" stroke="#050D1E" stroke-width="2.5" stroke-miterlimit="10" stroke-linecap="round"/>
<path d="M150.147 248.206H128.164L128.561 238.821H149.686L150.147 248.206Z" fill="#3363BE" stroke="#050D1E" stroke-width="2.5" stroke-miterlimit="10" stroke-linecap="round"/>
<path d="M151.097 267.667H127.345L127.742 258.281H150.639L151.097 267.667Z" fill="#3363BE" stroke="#050D1E" stroke-width="2.5" stroke-miterlimit="10" stroke-linecap="round"/>
<path d="M189.918 242.958L157.958 258.28H150.667V254.769L183.222 240.102L189.918 239.436V242.958Z" fill="#3363BE" stroke="#050D1E" stroke-width="2.5" stroke-miterlimit="10" stroke-linecap="round" stroke-linejoin="round"/>
<path opacity="0.13" d="M157.958 261.975V258.855L189.918 243.288V246.694L157.958 261.975Z" fill="#050D1E"/>
<path opacity="0.13" d="M189.918 261.646V258.525L221.878 242.958V246.365L189.918 261.646Z" fill="#050D1E"/>
<path opacity="0.13" d="M221.755 261.975V258.855L253.715 243.288V246.694L221.755 261.975Z" fill="#050D1E"/>
<path d="M173.552 271.151H165.959V273.442H173.552V271.151Z" fill="#C0DFE2" stroke="#050D1E" stroke-width="2.5" stroke-miterlimit="10" stroke-linecap="round"/>
<path d="M173.552 276.018H165.959V278.309H173.552V276.018Z" fill="#C0DFE2" stroke="#050D1E" stroke-width="2.5" stroke-miterlimit="10" stroke-linecap="round"/>
<path d="M184.285 271.151H176.692V273.442H184.285V271.151Z" fill="#C0DFE2" stroke="#050D1E" stroke-width="2.5" stroke-miterlimit="10" stroke-linecap="round"/>
<path d="M184.285 276.018H176.692V278.309H184.285V276.018Z" fill="#C0DFE2" stroke="#050D1E" stroke-width="2.5" stroke-miterlimit="10" stroke-linecap="round"/>
<path d="M203.042 271.151H195.448V273.442H203.042V271.151Z" fill="#C0DFE2" stroke="#050D1E" stroke-width="2.5" stroke-miterlimit="10" stroke-linecap="round"/>
<path d="M203.042 276.018H195.448V278.309H203.042V276.018Z" fill="#C0DFE2" stroke="#050D1E" stroke-width="2.5" stroke-miterlimit="10" stroke-linecap="round"/>
<path d="M213.775 271.151H206.181V273.442H213.775V271.151Z" fill="#C0DFE2" stroke="#050D1E" stroke-width="2.5" stroke-miterlimit="10" stroke-linecap="round"/>
<path d="M213.775 276.018H206.181V278.309H213.775V276.018Z" fill="#C0DFE2" stroke="#050D1E" stroke-width="2.5" stroke-miterlimit="10" stroke-linecap="round"/>
<path d="M237.96 271.151H230.367V273.442H237.96V271.151Z" fill="#C0DFE2" stroke="#050D1E" stroke-width="2.5" stroke-miterlimit="10" stroke-linecap="round"/>
<path d="M237.96 276.018H230.367V278.309H237.96V276.018Z" fill="#C0DFE2" stroke="#050D1E" stroke-width="2.5" stroke-miterlimit="10" stroke-linecap="round"/>
<path d="M248.694 271.151H241.1V273.442H248.694V271.151Z" fill="#C0DFE2" stroke="#050D1E" stroke-width="2.5" stroke-miterlimit="10" stroke-linecap="round"/>
<path d="M248.694 276.018H241.1V278.309H248.694V276.018Z" fill="#C0DFE2" stroke="#050D1E" stroke-width="2.5" stroke-miterlimit="10" stroke-linecap="round"/>
<path d="M275.085 289.936H214.014V331.137H275.085V289.936Z" fill="#F7F2EC" stroke="#050D1E" stroke-width="2.5" stroke-miterlimit="10"/>
<path opacity="0.13" d="M231.516 330.773H261.778V301.769H231.516V330.773Z" fill="#050D1E"/>
<path d="M243.111 331.137H282V303.829H243.111V331.137Z" fill="#F7F2EC" stroke="#050D1E" stroke-width="2.5" stroke-miterlimit="10"/>
<path d="M237.96 330.773H245.333V303.829H237.96V330.773Z" fill="#E4D4D0" stroke="#050D1E" stroke-width="2.5" stroke-miterlimit="10"/>
<path d="M236.627 303.797H262.883V297.741H236.627V303.797Z" fill="#29A65E" stroke="#050D1E" stroke-width="2.5" stroke-miterlimit="10"/>
<path d="M281.646 303.829H275.085V297.723H275.54C278.912 297.723 281.646 300.457 281.646 303.829Z" fill="#29A65E" stroke="#050D1E" stroke-width="2.5" stroke-miterlimit="10"/>
<path d="M273.485 289.936H266.444V285.157C266.444 279.375 261.74 274.671 255.959 274.671H253.707V267.631H255.959C265.623 267.631 273.485 275.493 273.485 285.157V289.936Z" fill="#43D983" stroke="#050D1E" stroke-width="2.5" stroke-miterlimit="10"/>
<path d="M246.527 303.829H284.095V297.723H246.527V303.829Z" fill="#43D983" stroke="#050D1E" stroke-width="2.5" stroke-miterlimit="10"/>
<path d="M245.489 307.028H281.796V304.093H245.489V307.028Z" fill="#E4D4D0"/>
<path d="M267.579 275.339C270.02 278.351 271.485 282.186 271.485 286.358Z" fill="#43D983"/>
<path d="M267.579 275.339C270.02 278.351 271.485 282.186 271.485 286.358" stroke="white" stroke-width="2.4372" stroke-miterlimit="10" stroke-linecap="round"/>
<path d="M262.404 271.003C263.472 271.593 264.473 272.291 265.391 273.083Z" fill="#43D983"/>
<path d="M262.404 271.003C263.472 271.593 264.473 272.291 265.391 273.083" stroke="white" stroke-width="2.4372" stroke-miterlimit="10" stroke-linecap="round"/>
<path d="M124.676 285.242H76.6183V331.066H124.676V285.242Z" fill="#F7F2EC" stroke="#050D1E" stroke-width="2.5" stroke-miterlimit="10"/>
<path d="M124.676 299.917H75.6276C73.6276 299.917 72.0062 298.296 72.0062 296.296C72.0062 294.296 73.6276 292.674 75.6276 292.674H124.676V299.917Z" fill="#F7F2EC" stroke="#050D1E" stroke-width="2.5" stroke-miterlimit="10"/>
<path d="M124.676 323.705H75.6276C73.6276 323.705 72.0062 322.084 72.0062 320.084C72.0062 318.084 73.6276 316.462 75.6276 316.462H124.676V323.705Z" fill="#F7F2EC" stroke="#050D1E" stroke-width="2.5" stroke-miterlimit="10"/>
<path opacity="0.13" d="M124.676 299.963H76.6183V303.829H124.676V299.963Z" fill="#050D1E"/>
<path opacity="0.13" d="M124.676 323.705H76.6183V327.571H124.676V323.705Z" fill="#050D1E"/>
<path d="M102.767 184.365H85.0391V189.5H102.767V184.365Z" fill="#F7F2EC" stroke="#050D1E" stroke-width="2.5" stroke-miterlimit="10"/>
<path d="M85.0391 194.404H103.556" stroke="#050D1E" stroke-width="2.5" stroke-miterlimit="10" stroke-linecap="round"/>
<path d="M85.0391 210.655H103.556" stroke="#050D1E" stroke-width="2.5" stroke-miterlimit="10" stroke-linecap="round"/>
<path d="M85.0391 228.882H103.556" stroke="#050D1E" stroke-width="2.5" stroke-miterlimit="10" stroke-linecap="round"/>
<path d="M102.476 194.404H98.2725V285.242H102.476V194.404Z" stroke="#050D1E" stroke-width="2.5" stroke-miterlimit="10" stroke-linecap="round"/>
<path opacity="0.13" d="M86.72 309.586C86.72 311.223 85.3929 312.55 83.7556 312.55C82.1182 312.55 80.7911 311.223 80.7911 309.586C80.7911 307.948 82.1182 306.621 83.7556 306.621C85.3925 306.621 86.72 307.948 86.72 309.586Z" fill="#050D1E"/>
<path opacity="0.13" d="M98.3413 309.586C98.3413 311.223 97.0142 312.55 95.3769 312.55C93.7395 312.55 92.412 311.223 92.412 309.586C92.412 307.948 93.7391 306.621 95.3769 306.621C97.0147 306.621 98.3413 307.948 98.3413 309.586Z" fill="#050D1E"/>
<path opacity="0.13" d="M109.339 309.586C109.339 311.223 108.012 312.55 106.374 312.55C104.737 312.55 103.41 311.223 103.41 309.586C103.41 307.948 104.737 306.621 106.374 306.621C108.012 306.621 109.339 307.948 109.339 309.586Z" fill="#050D1E"/>
<path opacity="0.13" d="M120.623 309.586C120.623 311.223 119.296 312.55 117.658 312.55C116.02 312.55 114.693 311.223 114.693 309.586C114.693 307.948 116.02 306.621 117.658 306.621C119.295 306.621 120.623 307.948 120.623 309.586Z" fill="#050D1E"/>
<path d="M36.9899 331.228L49.0596 256.417C49.1623 255.779 50.0801 255.779 50.1828 256.417L62.2525 331.228" stroke="#050D1E" stroke-width="2.5" stroke-miterlimit="10" stroke-linecap="round" stroke-linejoin="round"/>
<path d="M47.3627 266.934L53.2112 275.186L44.3427 285.387L56.7503 297.125L39.9485 312.889" stroke="#050D1E" stroke-width="2.5" stroke-miterlimit="10" stroke-linecap="round" stroke-linejoin="round"/>
<path d="M51.8796 266.934L46.2583 275.186L54.8663 285.446L42.4894 297.139L59.2903 312.889" stroke="#050D1E" stroke-width="2.5" stroke-miterlimit="10" stroke-linecap="round" stroke-linejoin="round"/>
<path d="M36.8832 267.835H62.3592" stroke="#050D1E" stroke-width="2.5" stroke-miterlimit="10" stroke-linecap="round" stroke-linejoin="round"/>
<path d="M36.8832 272.26H62.3592" stroke="#050D1E" stroke-width="2.5" stroke-miterlimit="10" stroke-linecap="round" stroke-linejoin="round"/>
<path d="M41.553 267.835C41.553 268.721 40.8348 269.44 39.9486 269.44C39.0623 269.44 38.3441 268.721 38.3441 267.835C38.3441 266.949 39.0623 266.231 39.9486 266.231C40.8348 266.231 41.553 266.949 41.553 267.835Z" fill="#050D1E" stroke="#050D1E" stroke-width="2.5" stroke-miterlimit="10" stroke-linecap="round" stroke-linejoin="round"/>
<path d="M61.5352 267.835C61.5352 268.721 60.817 269.44 59.9307 269.44C59.0445 269.44 58.3263 268.721 58.3263 267.835C58.3263 266.949 59.0445 266.231 59.9307 266.231C60.817 266.231 61.5352 266.949 61.5352 267.835Z" fill="#050D1E" stroke="#050D1E" stroke-width="2.5" stroke-miterlimit="10" stroke-linecap="round" stroke-linejoin="round"/>
<path d="M59.9307 273.864C60.8168 273.864 61.5352 273.146 61.5352 272.26C61.5352 271.374 60.8168 270.655 59.9307 270.655C59.0446 270.655 58.3263 271.374 58.3263 272.26C58.3263 273.146 59.0446 273.864 59.9307 273.864Z" fill="#050D1E" stroke="#050D1E" stroke-width="2.5" stroke-miterlimit="10" stroke-linecap="round" stroke-linejoin="round"/>
<path d="M41.553 272.26C41.553 273.146 40.8348 273.864 39.9486 273.864C39.0623 273.864 38.3441 273.146 38.3441 272.26C38.3441 271.373 39.0623 270.655 39.9486 270.655C40.8348 270.655 41.553 271.373 41.553 272.26Z" fill="#050D1E" stroke="#050D1E" stroke-width="2.5" stroke-miterlimit="10" stroke-linecap="round" stroke-linejoin="round"/>
<path d="M288.675 267.835C288.675 267.835 306.564 273.083 324.038 273.083" stroke="#050D1E" stroke-width="2.5" stroke-miterlimit="10" stroke-linecap="round" stroke-linejoin="round"/>
<path d="M288.675 272.682C288.675 272.682 306.564 277.929 324.038 277.929" stroke="#050D1E" stroke-width="2.5" stroke-miterlimit="10" stroke-linecap="round" stroke-linejoin="round"/>
<path d="M20.4445 271.88C31.4489 270.329 39.9467 267.836 39.9467 267.836" stroke="#050D1E" stroke-width="2.5" stroke-miterlimit="10" stroke-linecap="round" stroke-linejoin="round"/>
<path d="M20.4445 276.725C31.4489 275.173 39.9467 272.68 39.9467 272.68" stroke="#050D1E" stroke-width="2.5" stroke-miterlimit="10" stroke-linecap="round" stroke-linejoin="round"/>
<path opacity="0.13" d="M221.878 289.936H214.014V331.203H221.878V289.936Z" fill="#050D1E"/>
<path opacity="0.13" d="M124.676 285.242H117.658V331.136H124.676V285.242Z" fill="#050D1E"/>
<path opacity="0.13" d="M150.639 258.281C150.798 258.026 151.946 285.019 151.946 285.019H157.958V258.855L150.639 258.281Z" fill="#050D1E"/>
<path d="M263.249 177.831C263.346 177.528 263.431 177.218 263.502 176.902C264.063 174.427 263.724 171.959 262.705 169.835C265.461 168.602 267.384 165.842 267.384 162.628C267.384 161.045 266.913 159.574 266.111 158.338C268.591 157.006 270.278 154.389 270.278 151.377C270.278 147.419 267.362 144.15 263.563 143.578C263.397 137.4 259.019 132.276 253.194 130.972C253.365 129.986 253.459 128.975 253.459 127.94C253.459 118.185 245.551 110.277 235.796 110.277C235.326 110.277 234.863 110.301 234.404 110.337C230.313 100.196 220.384 93.0352 208.778 93.0352C200.077 93.0352 192.32 97.0618 187.255 103.348C185.864 103.132 184.438 103.019 182.986 103.019C174.646 103.019 167.175 106.72 162.109 112.563C161.253 112.438 160.379 112.37 159.488 112.37C149.564 112.37 141.518 120.416 141.518 130.34C141.518 137.765 146.022 144.138 152.447 146.877C151.351 149.176 150.736 151.749 150.736 154.466C150.736 164.221 158.644 172.129 168.399 172.129C171.011 172.129 173.488 171.558 175.718 170.54C178.834 175.558 184.392 178.901 190.732 178.901C197.827 178.901 203.941 174.716 206.75 168.681C208.459 169.586 210.407 170.101 212.475 170.101C214.487 170.101 216.383 169.613 218.058 168.754C219.049 170.77 220.871 172.297 223.08 172.894C222.411 174.302 222.035 175.877 222.035 177.54" stroke="#050D1E" stroke-width="2.5" stroke-miterlimit="10"/>
<path d="M134.514 179.039C134.626 178.334 134.898 177.684 135.291 177.123C134.181 176.827 133.191 176.241 132.412 175.444C131.86 175.631 131.271 175.737 130.656 175.737C129.034 175.737 127.581 175.026 126.581 173.903C125.398 174.458 124.083 174.777 122.69 174.777C120.516 174.777 118.522 174.018 116.949 172.757C115.537 173.245 114.023 173.514 112.444 173.514C108.827 173.514 105.537 172.117 103.08 169.835C101.785 170.593 100.284 171.034 98.6756 171.034C94.7933 171.034 91.5067 168.501 90.3662 165C87.8849 169.653 82.9853 172.82 77.3445 172.82C69.1982 172.82 62.5942 166.216 62.5942 158.07C62.5942 152.7 65.4649 148.001 69.7542 145.421C69.6845 144.762 69.6471 144.094 69.6471 143.417C69.6471 132.992 78.0982 124.541 88.5231 124.541C94.6782 124.541 100.144 127.488 103.589 132.047C105.983 130.034 109.071 128.82 112.444 128.82C119.22 128.82 124.85 133.717 125.996 140.165C129.73 140.399 132.689 143.493 132.689 147.287C132.689 148.057 132.564 148.798 132.337 149.494C137.656 149.736 141.897 154.112 141.897 159.49C141.897 161.737 141.148 163.804 139.899 165.475C141.88 166.539 143.227 168.629 143.227 171.034C143.227 172.873 142.435 174.523 141.18 175.676C142.406 176.314 143.31 177.485 143.581 178.883" stroke="#050D1E" stroke-width="2.5" stroke-miterlimit="10"/>
<path d="M321.74 330.517L332.929 261.991C333.032 261.353 333.95 261.353 334.052 261.991L345.193 331.042" stroke="#050D1E" stroke-width="2.5" stroke-miterlimit="10" stroke-linecap="round" stroke-linejoin="round"/>
<path d="M331.232 272.509L337.08 280.761L328.212 290.961L340.62 302.698L323.818 318.463" stroke="#050D1E" stroke-width="2.5" stroke-miterlimit="10" stroke-linecap="round" stroke-linejoin="round"/>
<path d="M335.749 272.509L330.128 280.761L338.736 291.02L326.359 302.713L343.16 318.463" stroke="#050D1E" stroke-width="2.5" stroke-miterlimit="10" stroke-linecap="round" stroke-linejoin="round"/>
<path d="M320.752 273.409H346.229" stroke="#050D1E" stroke-width="2.5" stroke-miterlimit="10" stroke-linecap="round" stroke-linejoin="round"/>
<path d="M320.752 277.834H346.229" stroke="#050D1E" stroke-width="2.5" stroke-miterlimit="10" stroke-linecap="round" stroke-linejoin="round"/>
<path d="M325.422 273.409C325.422 274.296 324.704 275.014 323.818 275.014C322.932 275.014 322.213 274.296 322.213 273.409C322.213 272.523 322.932 271.805 323.818 271.805C324.704 271.805 325.422 272.523 325.422 273.409Z" fill="#050D1E" stroke="#050D1E" stroke-width="2.5" stroke-miterlimit="10" stroke-linecap="round" stroke-linejoin="round"/>
<path d="M345.404 273.409C345.404 274.296 344.686 275.014 343.8 275.014C342.914 275.014 342.196 274.296 342.196 273.409C342.196 272.523 342.914 271.805 343.8 271.805C344.686 271.805 345.404 272.523 345.404 273.409Z" fill="#050D1E" stroke="#050D1E" stroke-width="2.5" stroke-miterlimit="10" stroke-linecap="round" stroke-linejoin="round"/>
<path d="M345.404 277.834C345.404 278.72 344.686 279.438 343.8 279.438C342.914 279.438 342.196 278.72 342.196 277.834C342.196 276.948 342.914 276.229 343.8 276.229C344.686 276.229 345.404 276.948 345.404 277.834Z" fill="#050D1E" stroke="#050D1E" stroke-width="2.5" stroke-miterlimit="10" stroke-linecap="round" stroke-linejoin="round"/>
<path d="M325.422 277.834C325.422 278.72 324.704 279.438 323.818 279.438C322.932 279.438 322.213 278.72 322.213 277.834C322.213 276.948 322.932 276.229 323.818 276.229C324.704 276.229 325.422 276.948 325.422 277.834Z" fill="#050D1E" stroke="#050D1E" stroke-width="2.5" stroke-miterlimit="10" stroke-linecap="round" stroke-linejoin="round"/>
<path d="M189.918 239.255L157.958 254.577H150.639L182.758 239.255H189.918Z" fill="#3363BE" stroke="#050D1E" stroke-width="2.5" stroke-miterlimit="10" stroke-linecap="round" stroke-linejoin="round"/>
<path d="M221.506 239.255L189.918 254.577V250.853L214.345 239.255H221.506Z" fill="#3363BE" stroke="#050D1E" stroke-width="2.5" stroke-miterlimit="10" stroke-linecap="round" stroke-linejoin="round"/>
<path d="M253.506 242.958L221.918 258.28V254.556L253.506 239.324V242.958Z" fill="#294478" stroke="#050D1E" stroke-width="2.5" stroke-miterlimit="10" stroke-linecap="round" stroke-linejoin="round"/>
<path d="M253.506 239.255L221.918 254.577V250.853L246.345 239.255H253.506Z" fill="#3363BE" stroke="#050D1E" stroke-width="2.5" stroke-miterlimit="10" stroke-linecap="round" stroke-linejoin="round"/>
<path d="M276.297 177.686H213.802V184.686H276.297V177.686Z" stroke="#050D1E" stroke-width="2.5" stroke-miterlimit="10"/>
<path d="M10.4436 331.315H391.556" stroke="#050D1E" stroke-width="2.5" stroke-miterlimit="10" stroke-linecap="round" stroke-linejoin="round"/>
</svg>
