<svg width="243" height="243" viewBox="0 0 243 243" fill="none" xmlns="http://www.w3.org/2000/svg">
<path d="M122.516 82.27C149.053 82.2701 170.613 102.775 170.613 127.907C170.613 153.039 149.053 173.543 122.516 173.543C95.9791 173.543 74.4194 153.039 74.4194 127.907C74.4195 102.775 95.9791 82.27 122.516 82.27Z" fill="#26365F" stroke="black"/>
<path d="M95.2095 102.027C110.304 88.0186 134.558 87.8614 149.647 102.186C164.551 116.336 164.72 139.318 149.647 153.629C142.699 160.224 133.036 164.251 122.516 164.251C101.301 164.251 84.035 147.984 84.0347 127.746C84.0347 118.425 87.7572 109.102 95.2095 102.027Z" fill="#B1B2B2" stroke="black"/>
<path d="M122.748 114.503C130.867 114.347 136.959 121.26 135.812 128.76C134.821 134.868 129.368 139.587 122.738 139.587C115.434 139.587 109.5 133.918 109.5 127.045C109.5 120.174 115.434 114.503 122.738 114.503H122.748Z" fill="#132E60" stroke="black"/>
<path d="M122.642 120.501C127.016 120.416 130.29 124.172 129.675 128.238C129.142 131.556 126.205 134.122 122.632 134.122C118.69 134.122 115.5 131.036 115.5 127.312C115.5 123.588 118.69 120.502 122.632 120.502L122.642 120.501Z" fill="#D8F2F1" stroke="black"/>
<path d="M77.5255 163.131C79.6783 163.131 81.3194 164.727 81.3194 166.708C81.3192 168.689 79.6782 170.283 77.5255 170.283C75.3729 170.283 73.7328 168.689 73.7325 166.708C73.7325 164.726 75.3727 163.132 77.5255 163.131Z" fill="#74829C" stroke="black"/>
<path d="M164.415 81.6172C167.083 81.6172 169.239 83.7 169.239 86.1729C169.239 88.6424 167.083 90.7266 164.415 90.7266C161.747 90.7263 159.591 88.6438 159.591 86.1729C159.591 83.6897 161.586 81.6174 164.415 81.6172Z" fill="#74829C" stroke="black"/>
<path d="M151.927 132.187C150.832 139.188 146.983 145.292 141.403 149.516L130.732 137.391C133.216 135.466 134.956 132.736 135.56 129.571L151.927 132.187Z" fill="#1E4080" stroke="black"/>
<path d="M109.958 129.572C110.697 132.733 112.426 135.596 114.772 137.542L104.095 149.675C98.6754 145.451 94.8257 139.348 93.5771 132.345L109.958 129.572Z" fill="#1E4080" stroke="black"/>
<path d="M122.162 98.5C124.195 98.5 126.056 98.6604 127.916 98.9814L127.923 98.9834C129.767 99.2751 131.331 99.6997 133.012 100.262L127.202 115.12C125.687 114.565 123.935 114.29 122.334 114.29C120.733 114.29 118.981 114.564 117.466 115.12L111.651 100.25C114.897 99.0844 118.448 98.5 122.162 98.5Z" fill="#1E4080" stroke="black"/>
<path d="M158.412 130.906C160.73 133.365 163.525 135.325 166.627 136.665C169.729 138.005 173.073 138.696 176.452 138.697C179.83 138.698 183.174 138.009 186.277 136.672C189.186 135.418 191.826 133.619 194.056 131.374L194.496 130.919L198.182 127.005C201.536 128.619 204.706 130.59 207.637 132.885L206.204 137.674C205.235 140.911 204.938 144.313 205.33 147.67C205.723 151.027 206.799 154.267 208.49 157.193C210.18 160.12 212.451 162.67 215.162 164.687C217.874 166.703 220.97 168.145 224.259 168.922H224.26L228.156 169.837C228.588 173.674 228.626 177.545 228.27 181.391L223.011 182.737C219.809 183.556 216.803 185.008 214.169 187.005C211.536 189.002 209.328 191.506 207.676 194.368C206.024 197.231 204.961 200.395 204.549 203.675C204.138 206.954 204.386 210.283 205.279 213.465L207.082 219.893C204.189 222.098 201.089 223.976 197.784 225.528L193.938 221.443L193.497 220.988C191.27 218.743 188.634 216.942 185.727 215.687C182.627 214.347 179.285 213.655 175.908 213.652C172.53 213.65 169.188 214.338 166.085 215.673C162.983 217.008 160.186 218.963 157.866 221.418L154.167 225.332C150.798 223.717 147.647 221.765 144.711 219.475L146.145 214.662C147.112 211.427 147.409 208.028 147.016 204.674C146.623 201.319 145.549 198.08 143.86 195.155C142.17 192.231 139.901 189.682 137.192 187.665C134.482 185.649 131.389 184.207 128.103 183.428H128.104L124.193 182.5C123.762 178.667 123.724 174.799 124.079 170.958L129.339 169.612C132.541 168.793 135.548 167.342 138.181 165.345C140.814 163.347 143.021 160.844 144.673 157.981C146.325 155.119 147.388 151.954 147.8 148.675C148.212 145.396 147.964 142.068 147.072 138.886L145.267 132.444C148.16 130.248 151.278 128.364 154.566 126.82L158.412 130.906ZM103.275 24.7998H139.725C143.392 24.7979 146.97 25.9334 149.964 28.0498C152.959 30.1661 155.223 33.159 156.446 36.6162L156.564 36.9502H176.175C180.876 36.9502 185.384 38.8176 188.708 42.1416C192.032 45.4657 193.9 49.9739 193.9 54.6748V111.207C190.248 110.213 186.518 109.53 182.75 109.163V54.6748C182.75 52.931 182.058 51.2584 180.825 50.0254C179.592 48.7924 177.919 48.0997 176.175 48.0996H156.564L156.446 48.4336C155.223 51.8907 152.959 54.8837 149.964 57C146.97 59.1163 143.392 60.2519 139.725 60.25H103.275L102.588 60.2373C99.1628 60.1064 95.843 58.9841 93.0355 57C90.041 54.8837 87.7765 51.8907 86.5541 48.4336L86.4359 48.0996H66.8246C65.0811 48.0997 63.4091 48.7926 62.1762 50.0254C60.9431 51.2584 60.2504 52.931 60.2504 54.6748V200.475C60.2504 202.218 60.9431 203.891 62.1762 205.124C63.4091 206.357 65.081 207.05 66.8246 207.05H116.336C118.396 211.021 120.808 214.738 123.574 218.2H66.8246C62.1238 218.2 57.6154 216.332 54.2914 213.008C50.9675 209.684 49.1 205.175 49.1 200.475V54.6748C49.1 49.9739 50.9674 45.4657 54.2914 42.1416C57.6154 38.8176 62.1238 36.9503 66.8246 36.9502H86.4359L86.5541 36.6162C87.7764 33.1591 90.041 30.1661 93.0355 28.0498C95.843 26.0657 99.1628 24.9434 102.588 24.8125L103.275 24.7998ZM176.175 163.524C172.82 163.524 169.602 164.857 167.23 167.229C164.858 169.602 163.525 172.82 163.525 176.175C163.525 179.53 164.858 182.748 167.23 185.12C169.602 187.492 172.82 188.825 176.175 188.825C179.53 188.825 182.747 187.492 185.12 185.12C187.492 182.748 188.825 179.53 188.825 176.175C188.825 172.82 187.492 169.602 185.12 167.229C182.747 164.857 179.53 163.524 176.175 163.524ZM103.275 35.9502C101.531 35.9502 99.8584 36.643 98.6254 37.876C97.3927 39.1089 96.6997 40.7809 96.6996 42.5244C96.6996 44.2681 97.3925 45.9408 98.6254 47.1738C99.8584 48.4068 101.531 49.0996 103.275 49.0996H139.725C141.469 49.0996 143.141 48.4069 144.374 47.1738C145.607 45.9408 146.3 44.2681 146.3 42.5244C146.3 40.7809 145.607 39.1089 144.374 37.876C143.141 36.6429 141.469 35.9502 139.725 35.9502H103.275Z" fill="#F0F0F0"/>
<path d="M158.412 130.906C160.73 133.365 163.525 135.325 166.627 136.665C169.729 138.005 173.073 138.696 176.452 138.697C179.83 138.698 183.174 138.009 186.277 136.672C189.186 135.418 191.826 133.619 194.056 131.374L194.496 130.919L198.182 127.005C201.536 128.619 204.706 130.59 207.637 132.885L206.204 137.674C205.235 140.911 204.938 144.313 205.33 147.67C205.723 151.027 206.799 154.267 208.49 157.193C210.18 160.12 212.451 162.67 215.162 164.687C217.874 166.703 220.97 168.145 224.259 168.922H224.26L228.156 169.837C228.588 173.674 228.626 177.545 228.27 181.391L223.011 182.737C219.809 183.556 216.803 185.008 214.169 187.005C211.536 189.002 209.328 191.506 207.676 194.368C206.024 197.231 204.961 200.395 204.549 203.675C204.138 206.954 204.386 210.283 205.279 213.465L207.082 219.893C204.189 222.098 201.089 223.976 197.784 225.528L193.938 221.443L193.497 220.988C191.27 218.743 188.634 216.942 185.727 215.687C182.627 214.347 179.285 213.655 175.908 213.652C172.53 213.65 169.188 214.338 166.085 215.673C162.983 217.008 160.186 218.963 157.866 221.418L154.167 225.332C150.798 223.717 147.647 221.765 144.711 219.475L146.145 214.662C147.112 211.427 147.409 208.028 147.016 204.674C146.623 201.319 145.549 198.08 143.86 195.155C142.17 192.231 139.901 189.682 137.192 187.665C134.482 185.649 131.389 184.207 128.103 183.428H128.104L124.193 182.5C123.762 178.667 123.724 174.799 124.079 170.958L129.339 169.612C132.541 168.793 135.548 167.342 138.181 165.345C140.814 163.347 143.021 160.844 144.673 157.981C146.325 155.119 147.388 151.954 147.8 148.675C148.212 145.396 147.964 142.068 147.072 138.886L145.267 132.444C148.16 130.248 151.278 128.364 154.566 126.82L158.412 130.906ZM103.275 24.7998H139.725C143.392 24.7979 146.97 25.9334 149.964 28.0498C152.959 30.1661 155.223 33.159 156.446 36.6162L156.564 36.9502H176.175C180.876 36.9502 185.384 38.8176 188.708 42.1416C192.032 45.4657 193.9 49.9739 193.9 54.6748V111.207C190.248 110.213 186.518 109.53 182.75 109.163V54.6748C182.75 52.931 182.058 51.2584 180.825 50.0254C179.592 48.7924 177.919 48.0997 176.175 48.0996H156.564L156.446 48.4336C155.223 51.8907 152.959 54.8837 149.964 57C146.97 59.1163 143.392 60.2519 139.725 60.25H103.275L102.588 60.2373C99.1628 60.1064 95.843 58.9841 93.0355 57C90.041 54.8837 87.7765 51.8907 86.5541 48.4336L86.4359 48.0996H66.8246C65.0811 48.0997 63.4091 48.7926 62.1762 50.0254C60.9431 51.2584 60.2504 52.931 60.2504 54.6748V200.475C60.2504 202.218 60.9431 203.891 62.1762 205.124C63.4091 206.357 65.081 207.05 66.8246 207.05H116.336C118.396 211.021 120.808 214.738 123.574 218.2H66.8246C62.1238 218.2 57.6154 216.332 54.2914 213.008C50.9675 209.684 49.1 205.175 49.1 200.475V54.6748C49.1 49.9739 50.9674 45.4657 54.2914 42.1416C57.6154 38.8176 62.1238 36.9503 66.8246 36.9502H86.4359L86.5541 36.6162C87.7764 33.1591 90.041 30.1661 93.0355 28.0498C95.843 26.0657 99.1628 24.9434 102.588 24.8125L103.275 24.7998ZM176.175 163.524C172.82 163.524 169.602 164.857 167.23 167.229C164.858 169.602 163.525 172.82 163.525 176.175C163.525 179.53 164.858 182.748 167.23 185.12C169.602 187.492 172.82 188.825 176.175 188.825C179.53 188.825 182.747 187.492 185.12 185.12C187.492 182.748 188.825 179.53 188.825 176.175C188.825 172.82 187.492 169.602 185.12 167.229C182.747 164.857 179.53 163.524 176.175 163.524ZM103.275 35.9502C101.531 35.9502 99.8584 36.643 98.6254 37.876C97.3927 39.1089 96.6997 40.7809 96.6996 42.5244C96.6996 44.2681 97.3925 45.9408 98.6254 47.1738C99.8584 48.4068 101.531 49.0996 103.275 49.0996H139.725C141.469 49.0996 143.141 48.4069 144.374 47.1738C145.607 45.9408 146.3 44.2681 146.3 42.5244C146.3 40.7809 145.607 39.1089 144.374 37.876C143.141 36.6429 141.469 35.9502 139.725 35.9502H103.275Z" stroke="black"/>
<path d="M158.412 130.906C160.73 133.365 163.525 135.325 166.627 136.665C169.729 138.005 173.073 138.696 176.452 138.697C179.83 138.698 183.174 138.009 186.277 136.672C189.186 135.418 191.826 133.619 194.056 131.374L194.496 130.919L198.182 127.005C201.536 128.619 204.706 130.59 207.637 132.885L206.204 137.674C205.235 140.911 204.938 144.313 205.33 147.67C205.723 151.027 206.799 154.267 208.49 157.193C210.18 160.12 212.451 162.67 215.162 164.687C217.874 166.703 220.97 168.145 224.259 168.922H224.26L228.156 169.837C228.588 173.674 228.626 177.545 228.27 181.391L223.011 182.737C219.809 183.556 216.803 185.008 214.169 187.005C211.536 189.002 209.328 191.506 207.676 194.368C206.024 197.231 204.961 200.395 204.549 203.675C204.138 206.954 204.386 210.283 205.279 213.465L207.082 219.893C204.189 222.098 201.089 223.976 197.784 225.528L193.938 221.443L193.497 220.988C191.27 218.743 188.634 216.942 185.727 215.687C182.627 214.347 179.285 213.655 175.908 213.652C172.53 213.65 169.188 214.338 166.085 215.673C162.983 217.008 160.186 218.963 157.866 221.418L154.167 225.332C150.798 223.717 147.647 221.765 144.711 219.475L146.145 214.662C147.112 211.427 147.409 208.028 147.016 204.674C146.623 201.319 145.549 198.08 143.86 195.155C142.17 192.231 139.901 189.682 137.192 187.665C134.482 185.649 131.389 184.207 128.103 183.428H128.104L124.193 182.5C123.762 178.667 123.724 174.799 124.079 170.958L129.339 169.612C132.541 168.793 135.548 167.342 138.181 165.345C140.814 163.347 143.021 160.844 144.673 157.981C146.325 155.119 147.388 151.954 147.8 148.675C148.212 145.396 147.964 142.068 147.072 138.886L145.267 132.444C148.16 130.248 151.278 128.364 154.566 126.82L158.412 130.906ZM103.275 24.7998H139.725C143.392 24.7979 146.97 25.9334 149.964 28.0498C152.959 30.1661 155.223 33.159 156.446 36.6162L156.564 36.9502H176.175C180.876 36.9502 185.384 38.8176 188.708 42.1416C192.032 45.4657 193.9 49.9739 193.9 54.6748V111.207C190.248 110.213 186.518 109.53 182.75 109.163V54.6748C182.75 52.931 182.058 51.2584 180.825 50.0254C179.592 48.7924 177.919 48.0997 176.175 48.0996H156.564L156.446 48.4336C155.223 51.8907 152.959 54.8837 149.964 57C146.97 59.1163 143.392 60.2519 139.725 60.25H103.275L102.588 60.2373C99.1628 60.1064 95.843 58.9841 93.0355 57C90.041 54.8837 87.7765 51.8907 86.5541 48.4336L86.4359 48.0996H66.8246C65.0811 48.0997 63.4091 48.7926 62.1762 50.0254C60.9431 51.2584 60.2504 52.931 60.2504 54.6748V200.475C60.2504 202.218 60.9431 203.891 62.1762 205.124C63.4091 206.357 65.081 207.05 66.8246 207.05H116.336C118.396 211.021 120.808 214.738 123.574 218.2H66.8246C62.1238 218.2 57.6154 216.332 54.2914 213.008C50.9675 209.684 49.1 205.175 49.1 200.475V54.6748C49.1 49.9739 50.9674 45.4657 54.2914 42.1416C57.6154 38.8176 62.1238 36.9503 66.8246 36.9502H86.4359L86.5541 36.6162C87.7764 33.1591 90.041 30.1661 93.0355 28.0498C95.843 26.0657 99.1628 24.9434 102.588 24.8125L103.275 24.7998ZM176.175 163.524C172.82 163.524 169.602 164.857 167.23 167.229C164.858 169.602 163.525 172.82 163.525 176.175C163.525 179.53 164.858 182.748 167.23 185.12C169.602 187.492 172.82 188.825 176.175 188.825C179.53 188.825 182.747 187.492 185.12 185.12C187.492 182.748 188.825 179.53 188.825 176.175C188.825 172.82 187.492 169.602 185.12 167.229C182.747 164.857 179.53 163.524 176.175 163.524ZM103.275 35.9502C101.531 35.9502 99.8584 36.643 98.6254 37.876C97.3927 39.1089 96.6997 40.7809 96.6996 42.5244C96.6996 44.2681 97.3925 45.9408 98.6254 47.1738C99.8584 48.4068 101.531 49.0996 103.275 49.0996H139.725C141.469 49.0996 143.141 48.4069 144.374 47.1738C145.607 45.9408 146.3 44.2681 146.3 42.5244C146.3 40.7809 145.607 39.1089 144.374 37.876C143.141 36.6429 141.469 35.9502 139.725 35.9502H103.275Z" stroke="black"/>
</svg>
