<svg width="201" height="230" viewBox="0 0 201 230" fill="none" xmlns="http://www.w3.org/2000/svg">
<g clip-path="url(#clip0_127_55)">
<path d="M31.2195 108.151H2.78831C0.8361 101.2 0 93.6929 0 86.1876C0 40.315 35.6803 3.05875 80.8378 0.000496198V40.0364C80.8378 46.987 74.983 52.8265 68.0142 52.8265C54.913 52.8265 44.0417 63.6693 44.0417 76.7363V95.0865C44.0438 102.315 38.1882 108.151 31.2195 108.151ZM117.632 101.2V77.0123C117.632 63.9453 128.504 53.1024 141.605 53.1024H166.136C153.87 23.3549 125.437 2.22419 91.9878 0V40.0359C91.9878 53.103 81.1165 63.9458 68.015 63.9458C61.0463 63.9458 55.1915 69.7853 55.1915 76.7358V95.086C55.1915 108.153 44.3202 118.996 31.219 118.996H6.68833C19.5119 149.579 49.3372 171.264 84.1812 172.098C83.9033 169.317 83.6232 166.538 83.6232 163.757C83.625 137.622 97.284 114.545 117.632 101.2ZM128.781 77.0123V95.3625C134.914 92.5813 141.605 90.9137 148.293 89.8026C151.638 89.2458 155.262 88.9685 158.886 88.9685C163.625 88.9685 168.085 89.5251 172.824 90.3592V86.1896C172.824 78.6825 171.71 71.1772 170.036 64.2266L141.605 64.2248C134.636 64.2248 128.781 69.7843 128.781 77.0123Z" fill="#4084C5"/>
<path d="M170.874 174.877L180.073 192.67C182.025 191.28 183.697 189.889 185.089 188.221C188.714 184.329 191.222 179.88 192.894 175.154C193.452 172.93 194.009 170.705 194.288 168.481L174.496 169.038C173.66 171.262 172.546 173.208 170.874 174.877ZM223 164.034C223 199.343 194.289 227.979 158.888 227.979C123.486 227.979 94.7748 199.064 94.7748 164.034C94.7748 129.003 123.486 100.088 158.888 100.088C194.29 100.088 223 128.725 223 164.034ZM205.718 164.034V162.922V162.645C205.718 159.864 203.766 157.642 200.98 157.362H199.866L173.943 158.196C173.385 156.806 172.549 155.415 171.713 154.304L185.65 132.341C186.208 131.507 186.486 130.117 186.486 129.283C186.486 129.005 186.486 128.726 186.208 128.171V127.894C186.208 127.617 186.208 127.338 185.93 127.338C185.372 126.503 184.816 125.67 183.978 125.113C176.451 120.387 167.81 117.885 158.891 117.885C149.97 117.885 141.329 120.387 133.805 125.113C132.969 125.67 132.132 126.503 131.852 127.338C131.852 127.615 131.574 127.894 131.574 127.894V128.171C131.574 128.449 131.574 128.728 131.296 129.283C131.296 130.394 131.574 131.507 132.132 132.341L146.07 154.304C145.234 155.415 144.398 156.806 143.84 158.196L117.917 157.362H117.639H117.361C115.13 157.362 113.458 158.753 112.622 160.698C112.622 160.975 112.622 160.975 112.344 161.254C112.344 161.532 112.344 161.532 112.066 161.811V162.922V163.2V164.311C112.066 181.827 121.823 197.673 137.433 206.014C138.269 206.292 139.105 206.571 139.941 206.571C140.499 206.571 141.055 206.571 141.335 206.294H141.613C141.892 206.294 142.45 206.016 142.728 205.737C143.564 205.18 144.122 204.626 144.68 203.513L156.387 180.437C156.945 180.437 157.782 180.714 158.618 180.714C159.454 180.714 160.012 180.714 160.848 180.437L172.555 203.513C172.834 204.069 173.114 204.347 173.392 204.903C173.67 205.18 173.95 205.46 174.228 205.46L174.506 205.737C174.784 205.737 174.784 205.737 175.064 206.014C175.342 206.014 175.622 206.292 175.9 206.292C176.458 206.292 176.736 206.569 177.294 206.569C178.13 206.569 178.966 206.292 179.802 206.012C195.963 197.396 205.718 181.548 205.718 164.034ZM158.887 147.631C160.001 147.631 161.117 147.631 162.232 147.908L172.825 131.226C170.594 130.392 168.086 129.558 165.856 129.001C161.117 128.167 156.379 128.167 151.918 129.001C149.41 129.558 147.18 130.112 144.95 131.226L155.543 147.908C156.657 147.631 157.773 147.631 158.887 147.631ZM123.485 168.204C123.763 170.428 124.321 172.652 124.879 174.877C126.552 179.88 129.06 184.329 132.684 187.944C134.079 189.611 136.029 191.002 137.701 192.392L146.9 174.599C145.228 172.931 144.111 170.984 143.275 168.483L123.485 168.204ZM158.887 158.751C156.099 158.751 153.59 160.976 153.59 164.034C153.59 166.815 155.821 169.317 158.887 169.317C161.954 169.317 164.184 167.093 164.184 164.034C164.184 160.976 161.676 158.751 158.887 158.751Z" fill="#67679A"/>
</g>
<defs>
<clipPath id="clip0_127_55">
<rect width="223" height="230" fill="white"/>
</clipPath>
</defs>
</svg>
