<svg width="209" height="228" viewBox="0 0 209 228" fill="none" xmlns="http://www.w3.org/2000/svg">
<g clip-path="url(#clip0_127_58)">
<path d="M129.285 133.334C126.071 133.334 122.988 134.61 120.715 136.883C118.443 139.156 117.164 142.24 117.164 145.455V210.099H47.931C73.0274 170.024 76.8152 114.966 76.3113 80.8842C76.2911 79.8003 76.7087 78.7535 77.468 77.9791C78.2273 77.2044 79.2656 76.7681 80.3495 76.7681H145.92C146.997 76.7648 148.031 77.1944 148.79 77.9586C149.549 78.7246 149.97 79.7613 149.958 80.8383C149.683 98.3894 150.711 115.935 153.034 133.336L129.285 133.334ZM7.86226 210.099C24.2868 185.991 34.1352 158.013 36.4352 128.936C36.6263 126.842 38.385 125.244 40.4851 125.252H61.6038C62.7656 125.247 63.8733 125.741 64.6444 126.609C65.4155 127.476 65.7772 128.633 65.6368 129.786C62.0959 157.199 54.2955 186.833 38.2563 210.101L7.86226 210.099ZM129.285 20.2006H137.367C138.439 20.2006 139.465 20.6268 140.224 21.3843C140.982 22.1419 141.406 23.17 141.406 24.2421C141.406 25.3126 140.982 26.3407 140.224 27.0982C139.465 27.8557 138.439 28.282 137.367 28.282H129.285C127.055 28.282 125.246 26.4726 125.246 24.2422C125.246 22.0101 127.055 20.2006 129.285 20.2006ZM141.406 4.03975V8.07953C141.406 9.15164 140.982 10.1798 140.224 10.9373C139.465 11.6949 138.439 12.121 137.367 12.121H129.285C127.055 12.121 125.246 10.3117 125.246 8.07958V4.03978C125.246 1.80769 127.055 0 129.285 0H137.367C138.439 0 139.465 0.424441 140.224 1.18202C140.982 1.94128 141.406 2.96764 141.406 4.03975ZM129.285 36.3632H137.367C138.439 36.3632 139.465 36.7877 140.224 37.5452C140.982 38.3045 141.406 39.331 141.406 40.4031V44.4428C141.406 45.515 140.982 46.543 140.224 47.3008C139.465 48.0583 138.439 48.4843 137.367 48.4843H129.285C127.055 48.4843 125.246 46.6749 125.246 44.4428V40.4031C125.246 38.171 127.055 36.3632 129.285 36.3632ZM88.8823 20.2006H96.9635C98.0338 20.2006 99.0621 20.6268 99.8197 21.3843C100.577 22.1419 101.003 23.17 101.003 24.2421C101.003 25.3126 100.577 26.3407 99.8197 27.0982C99.0621 27.8557 98.0338 28.282 96.9635 28.282H88.8823C86.6502 28.282 84.8424 26.4726 84.8424 24.2422C84.8424 22.0101 86.6502 20.2006 88.8823 20.2006ZM101.003 4.03975V8.07953C101.003 9.15164 100.577 10.1798 99.8197 10.9373C99.0621 11.6949 98.0338 12.121 96.9635 12.121H88.8821C86.65 12.121 84.8424 10.3117 84.8424 8.07958V4.03978C84.8424 1.80769 86.65 0 88.8821 0H96.9635C98.0338 0 99.0621 0.424441 99.8197 1.18202C100.577 1.94128 101.003 2.96764 101.003 4.03975ZM88.8823 36.3632H96.9635C98.0338 36.3632 99.0621 36.7877 99.8197 37.5452C100.577 38.3045 101.003 39.331 101.003 40.4031V44.4428C101.003 45.515 100.577 46.543 99.8197 47.3008C99.0621 48.0583 98.0338 48.4843 96.9635 48.4843H88.8823C86.6502 48.4843 84.8424 46.6749 84.8424 44.4428V40.4031C84.8424 38.171 86.6502 36.3632 88.8823 36.3632ZM150.756 60.8829C150.673 62.1054 150.59 63.4311 150.509 64.8501C150.389 66.9941 148.624 68.6751 146.478 68.6851H79.7685C77.6243 68.6751 75.8589 67.001 75.7355 64.8619C75.6527 63.4447 75.5682 62.1157 75.4803 60.8729C75.4042 59.7568 75.7946 58.6575 76.5591 57.8426C77.325 57.0259 78.3938 56.5642 79.5133 56.5658L146.729 56.5896C147.845 56.586 148.912 57.0479 149.676 57.8613C150.439 58.6747 150.829 59.7703 150.756 60.8829ZM67.5882 109.315C67.5018 110.675 67.4055 112.045 67.3007 113.428C67.1332 115.538 65.3745 117.167 63.2574 117.172H41.0984C38.8796 117.16 37.0838 115.368 37.0654 113.149C37.0518 111.728 37.018 110.409 36.9739 109.202C36.9386 108.111 37.3495 107.053 38.1103 106.27C38.873 105.487 39.9197 105.047 41.0121 105.051H63.5431C64.6557 105.045 65.7227 105.5 66.4889 106.309C67.2549 107.115 67.6522 108.204 67.5882 109.315ZM226.257 226.262H0V218.183H226.257V226.262Z" fill="#4084C5"/>
<path d="M157.57 169.697V161.616C157.57 160.544 157.144 159.517 156.387 158.758C155.629 158 154.601 157.576 153.529 157.576H149.489C147.257 157.576 145.449 159.384 145.449 161.616V169.697C145.449 171.927 147.257 173.737 149.489 173.737H153.529C154.601 173.737 155.629 173.311 156.387 172.553C157.144 171.795 157.57 170.767 157.57 169.697Z" fill="#67679A"/>
<path d="M177.773 169.697V161.616C177.773 160.544 177.346 159.517 176.589 158.758C175.829 158 174.803 157.576 173.731 157.576H169.691C167.459 157.576 165.65 159.384 165.65 161.616V169.697C165.65 171.927 167.459 173.737 169.691 173.737H173.731C174.803 173.737 175.829 173.311 176.589 172.553C177.346 171.795 177.773 170.767 177.773 169.697Z" fill="#67679A"/>
<path d="M197.975 169.697V161.616C197.975 160.544 197.547 159.517 196.79 158.758C196.032 158 195.004 157.576 193.934 157.576H189.892C187.661 157.576 185.852 159.384 185.852 161.616V169.697C185.852 171.927 187.661 173.737 189.892 173.737H193.934C195.004 173.737 196.032 173.311 196.79 172.553C197.547 171.795 197.975 170.767 197.975 169.697Z" fill="#67679A"/>
<path d="M218.177 169.697V161.616C218.177 160.544 217.749 159.517 216.992 158.758C216.234 158 215.206 157.576 214.134 157.576H210.094C207.862 157.576 206.055 159.384 206.055 161.616V169.697C206.055 171.927 207.862 173.737 210.094 173.737H214.134C215.206 173.737 216.234 173.311 216.992 172.553C217.749 171.795 218.177 170.767 218.177 169.697Z" fill="#67679A"/>
<path d="M129.288 173.737H133.33C134.4 173.737 135.428 173.311 136.186 172.553C136.943 171.796 137.369 170.767 137.369 169.697V161.616C137.369 160.544 136.943 159.517 136.186 158.758C135.428 158 134.4 157.576 133.33 157.576H129.288C127.058 157.576 125.248 159.384 125.248 161.616V169.697C125.248 171.927 127.058 173.737 129.288 173.737Z" fill="#67679A"/>
<path d="M214.138 181.818H129.29C127.06 181.818 125.25 183.626 125.25 185.858V206.06C125.25 208.291 127.06 210.1 129.29 210.1H214.138C215.21 210.1 216.238 209.674 216.995 208.916C217.753 208.159 218.179 207.131 218.179 206.06V185.858C218.179 184.786 217.753 183.759 216.995 183C216.238 182.242 215.21 181.818 214.138 181.818Z" fill="#67679A"/>
<path d="M218.176 149.495V145.455C218.175 143.223 216.366 141.415 214.134 141.413H129.286C127.056 141.415 125.248 143.223 125.247 145.455V149.495H218.176Z" fill="#67679A"/>
</g>
<defs>
<clipPath id="clip0_127_58">
<rect width="228" height="228" fill="white"/>
</clipPath>
</defs>
</svg>
