<svg width="256" height="256" viewBox="0 0 256 256" fill="none" xmlns="http://www.w3.org/2000/svg">
<path d="M168 138.667C168 136.545 167.157 134.51 165.657 133.01C164.157 131.509 162.122 130.667 160 130.667H96C93.8783 130.667 91.8434 131.509 90.3432 133.01C88.8429 134.51 88 136.545 88 138.667C88 140.788 88.8429 142.823 90.3432 144.323C91.8434 145.824 93.8783 146.667 96 146.667H160C162.122 146.667 164.157 145.824 165.657 144.323C167.157 142.823 168 140.788 168 138.667ZM168 181.333C168 179.212 167.157 177.177 165.657 175.676C164.157 174.176 162.122 173.333 160 173.333H96C93.8783 173.333 91.8434 174.176 90.3432 175.676C88.8429 177.177 88 179.212 88 181.333C88 183.455 88.8429 185.49 90.3432 186.99C91.8434 188.49 93.8783 189.333 96 189.333H160C162.122 189.333 164.157 188.49 165.657 186.99C167.157 185.49 168 183.455 168 181.333Z" fill="#1E4080"/>
<path fill-rule="evenodd" clip-rule="evenodd" d="M74.6667 24C66.887 24 59.4259 27.0905 53.9249 32.5915C48.4238 38.0926 45.3333 45.5537 45.3333 53.3333V202.667C45.3333 210.446 48.4238 217.907 53.9249 223.408C59.4259 228.91 66.887 232 74.6667 232H181.333C189.113 232 196.574 228.91 202.075 223.408C207.576 217.907 210.667 210.446 210.667 202.667V84.992C210.667 80.928 209.344 76.9813 206.891 73.7387L174.912 31.4133C173.172 29.1106 170.922 27.2427 168.338 25.9564C165.754 24.67 162.908 24.0004 160.021 24H74.6667ZM61.3333 53.3333C61.3333 45.9733 67.3067 40 74.6667 40H152V86.9013C152 91.3173 155.584 94.9013 160 94.9013H194.667V202.667C194.667 210.027 188.693 216 181.333 216H74.6667C67.3067 216 61.3333 210.027 61.3333 202.667V53.3333Z" fill="#1E4080"/>
</svg>
