<svg width="228" height="228" viewBox="0 0 228 228" fill="none" xmlns="http://www.w3.org/2000/svg">
<path d="M38 40.375C38 34.706 40.252 29.2692 44.2606 25.2606C48.2692 21.252 53.706 19 59.375 19H168.625C171.432 19 174.212 19.5529 176.805 20.6271C179.398 21.7013 181.755 23.2757 183.739 25.2606C185.724 27.2454 187.299 29.6018 188.373 32.1951C189.447 34.7885 190 37.568 190 40.375V109.231C185.428 107.328 180.644 105.982 175.75 105.222V40.375C175.75 38.4853 174.999 36.6731 173.663 35.3369C172.327 34.0007 170.515 33.25 168.625 33.25H59.375C57.4853 33.25 55.6731 34.0007 54.3369 35.3369C53.0007 36.6731 52.25 38.4853 52.25 40.375V187.625C52.25 191.558 55.442 194.75 59.375 194.75H111.454C114.172 199.963 117.62 204.762 121.695 209H59.375C53.706 209 48.2692 206.748 44.2606 202.739C40.252 198.731 38 193.294 38 187.625V40.375ZM154.375 104.5C155.433 104.506 156.418 104.719 157.33 105.137C146.086 106.765 135.514 111.477 126.787 118.75H73.625C71.7353 118.75 69.9231 117.999 68.5869 116.663C67.2507 115.327 66.5 113.515 66.5 111.625C66.5 109.735 67.2507 107.923 68.5869 106.587C69.9231 105.251 71.7353 104.5 73.625 104.5H154.375ZM73.625 61.75C71.7353 61.75 69.9231 62.5007 68.5869 63.8369C67.2507 65.1731 66.5 66.9853 66.5 68.875C66.5 70.7647 67.2507 72.5769 68.5869 73.9131C69.9231 75.2493 71.7353 76 73.625 76H154.375C156.265 76 158.077 75.2493 159.413 73.9131C160.749 72.5769 161.5 70.7647 161.5 68.875C161.5 66.9853 160.749 65.1731 159.413 63.8369C158.077 62.5007 156.265 61.75 154.375 61.75H73.625ZM218.5 166.25C218.5 152.392 212.995 139.102 203.196 129.304C193.398 119.505 180.108 114 166.25 114C152.392 114 139.102 119.505 129.304 129.304C119.505 139.102 114 152.392 114 166.25C114 180.108 119.505 193.398 129.304 203.196C139.102 212.995 152.392 218.5 166.25 218.5C180.108 218.5 193.398 212.995 203.196 203.196C212.995 193.398 218.5 180.108 218.5 166.25ZM171 171L171.009 194.779C171.009 196.038 170.509 197.246 169.618 198.137C168.727 199.028 167.519 199.529 166.259 199.529C165 199.529 163.792 199.028 162.901 198.137C162.01 197.246 161.509 196.038 161.509 194.779V171H137.712C136.452 171 135.244 170.5 134.353 169.609C133.462 168.718 132.962 167.51 132.962 166.25C132.962 164.99 133.462 163.782 134.353 162.891C135.244 162 136.452 161.5 137.712 161.5H161.5V137.75C161.5 136.49 162 135.282 162.891 134.391C163.782 133.5 164.99 133 166.25 133C167.51 133 168.718 133.5 169.609 134.391C170.5 135.282 171 136.49 171 137.75V161.5H194.721C195.981 161.5 197.189 162 198.08 162.891C198.971 163.782 199.471 164.99 199.471 166.25C199.471 167.51 198.971 168.718 198.08 169.609C197.189 170.5 195.981 171 194.721 171H171Z" fill="#35B56B"/>
</svg>
